<svg width="673" height="161" viewBox="0 0 673 161" fill="none" xmlns="http://www.w3.org/2000/svg">
<g clip-path="url(#clip0_602_1754)">
<path d="M140.64 110.74C142.067 110.833 142.797 110.167 142.83 108.74C143.05 99.3 143.64 89.95 143.64 80.6C143.647 72.08 143.617 62.8 143.55 52.76C143.5 45.51 139.42 39.96 133.15 36.52C115.397 26.8 98.6499 17.6033 82.9099 8.93C77.2899 5.83 69.4799 5.65 63.8399 8.76C46.5066 18.2867 29.4433 27.65 12.6499 36.85C5.89993 40.55 2.83993 46.1 2.79993 53.79C2.7066 71.7767 2.69326 89.11 2.75993 105.79C2.78993 114.4 4.72993 121.09 12.1999 125.12C27.5666 133.42 42.5066 141.65 57.0199 149.81C62.9333 153.137 66.7899 155.027 68.5899 155.48C73.3833 156.687 77.9866 156.067 82.3999 153.62C93.2333 147.627 103.793 141.807 114.08 136.16C115.467 135.393 116.823 134.587 118.15 133.74C121.38 131.68 121.11 127.57 118.78 124.94C111.573 116.82 105.093 109.6 99.3399 103.28C99.1244 103.039 98.9948 102.734 98.9713 102.412C98.9478 102.09 99.0317 101.769 99.2099 101.5C100.92 98.93 102.81 96.32 103.87 93.42C108.01 82.0667 106.807 71.7267 100.26 62.4C91.2699 49.59 75.1799 44.66 60.5399 50.72C49.7999 55.16 41.7299 65.64 40.4999 77.23C38.5599 95.48 51.0699 111.22 69.1599 113.87C75.6199 114.82 82.7199 113.26 88.5399 110.42C88.8132 110.285 89.1238 110.244 89.4237 110.304C89.7236 110.364 89.9963 110.52 90.1999 110.75L108.86 131.65C108.911 131.708 108.949 131.776 108.97 131.85C108.992 131.925 108.996 132.003 108.982 132.079C108.969 132.155 108.938 132.227 108.893 132.29C108.847 132.352 108.788 132.404 108.72 132.44C99.8133 137.22 90.4466 142.353 80.6199 147.84C75.7999 150.53 71.4399 150.9 66.3399 148.09C50.2199 139.223 33.1366 129.833 15.0899 119.92C10.8633 117.6 8.74993 113.977 8.74993 109.05C8.7566 90.1833 8.7566 71.57 8.74993 53.21C8.74993 48.25 10.9799 44.5467 15.4399 42.1C33.9066 31.98 51.0699 22.5567 66.9299 13.83C73.3699 10.29 78.3299 13.19 84.0999 16.4C93.5399 21.66 109.083 30.2067 130.73 42.04C137.8 45.91 137.71 50.97 137.71 58.05C137.717 71.6567 137.843 85.3267 138.09 99.06C138.15 102.38 138.82 105.59 138.68 108.9C138.633 110.047 139.183 110.657 140.33 110.73L140.64 110.74Z" stroke="#075885" stroke-width="2"/>
<path d="M100.23 81.13C100.23 73.9692 97.3853 67.1016 92.3219 62.0381C87.2584 56.9746 80.3908 54.13 73.23 54.13C66.0691 54.13 59.2016 56.9746 54.1381 62.0381C49.0746 67.1016 46.23 73.9692 46.23 81.13C46.23 88.2908 49.0746 95.1584 54.1381 100.222C59.2016 105.285 66.0691 108.13 73.23 108.13C80.3908 108.13 87.2584 105.285 92.3219 100.222C97.3853 95.1584 100.23 88.2908 100.23 81.13Z" stroke="#075885" stroke-width="2"/>
<path d="M140.64 110.74L140.33 110.73C139.183 110.657 138.633 110.047 138.68 108.9C138.82 105.59 138.15 102.38 138.09 99.06C137.843 85.3267 137.717 71.6567 137.71 58.05C137.71 50.97 137.8 45.91 130.73 42.04C109.083 30.2067 93.5399 21.66 84.0999 16.4C78.3299 13.19 73.3699 10.29 66.9299 13.83C51.0699 22.5567 33.9066 31.98 15.4399 42.1C10.9799 44.5467 8.74993 48.25 8.74993 53.21C8.7566 71.57 8.7566 90.1833 8.74993 109.05C8.74993 113.977 10.8633 117.6 15.0899 119.92C33.1366 129.833 50.2199 139.223 66.3399 148.09C71.4399 150.9 75.7999 150.53 80.6199 147.84C90.4466 142.353 99.8133 137.22 108.72 132.44C108.788 132.404 108.847 132.352 108.893 132.29C108.938 132.227 108.969 132.155 108.982 132.079C108.996 132.003 108.992 131.925 108.97 131.85C108.949 131.776 108.911 131.708 108.86 131.65L90.1999 110.75C89.9963 110.52 89.7236 110.364 89.4237 110.304C89.1238 110.244 88.8132 110.285 88.5399 110.42C82.7199 113.26 75.6199 114.82 69.1599 113.87C51.0699 111.22 38.5599 95.48 40.4999 77.23C41.7299 65.64 49.7999 55.16 60.5399 50.72C75.1799 44.66 91.2699 49.59 100.26 62.4C106.807 71.7267 108.01 82.0667 103.87 93.42C102.81 96.32 100.92 98.93 99.2099 101.5C99.0317 101.769 98.9478 102.09 98.9713 102.412C98.9948 102.734 99.1244 103.039 99.3399 103.28C105.093 109.6 111.573 116.82 118.78 124.94C121.11 127.57 121.38 131.68 118.15 133.74C116.823 134.587 115.467 135.393 114.08 136.16C103.793 141.807 93.2333 147.627 82.3999 153.62C77.9866 156.067 73.3833 156.687 68.5899 155.48C66.7899 155.027 62.9333 153.137 57.0199 149.81C42.5066 141.65 27.5666 133.42 12.1999 125.12C4.72993 121.09 2.78993 114.4 2.75993 105.79C2.69326 89.11 2.7066 71.7767 2.79993 53.79C2.83993 46.1 5.89993 40.55 12.6499 36.85C29.4433 27.65 46.5066 18.2867 63.8399 8.76C69.4799 5.65 77.2899 5.83 82.9099 8.93C98.6499 17.6033 115.397 26.8 133.15 36.52C139.42 39.96 143.5 45.51 143.55 52.76C143.617 62.8 143.647 72.08 143.64 80.6C143.64 89.95 143.05 99.3 142.83 108.74C142.797 110.167 142.067 110.833 140.64 110.74ZM100.23 81.13C100.23 73.9692 97.3853 67.1016 92.3218 62.0381C87.2583 56.9746 80.3908 54.13 73.2299 54.13C66.0691 54.13 59.2015 56.9746 54.138 62.0381C49.0746 67.1016 46.2299 73.9692 46.2299 81.13C46.2299 88.2908 49.0746 95.1584 54.138 100.222C59.2015 105.285 66.0691 108.13 73.2299 108.13C80.3908 108.13 87.2583 105.285 92.3218 100.222C97.3853 95.1584 100.23 88.2908 100.23 81.13Z" fill="#075885"/>
<path d="M76.2902 34.98C76.2235 36.3267 76.2269 37.6933 76.3002 39.08C76.4402 41.76 73.3702 43.75 71.3702 41.6C69.8802 39.98 70.2602 36.81 70.4002 34.78C70.4061 34.6984 70.3945 34.6164 70.3659 34.5397C70.3374 34.463 70.2926 34.3933 70.2347 34.3354C70.1769 34.2776 70.1072 34.2328 70.0305 34.2043C69.9538 34.1757 69.8718 34.164 69.7902 34.17C64.3835 34.5833 59.0869 35.9667 53.9002 38.32C53.7622 38.3829 53.6403 38.4763 53.5437 38.5933C53.4472 38.7102 53.3785 38.8476 53.3428 38.995C53.3072 39.1424 53.3055 39.2959 53.338 39.4441C53.3704 39.5922 53.4362 39.731 53.5302 39.85C55.3702 42.14 57.8702 45.21 54.4402 47.67C54.2807 47.7858 54.0975 47.8647 53.9038 47.901C53.7101 47.9373 53.5108 47.9302 53.3202 47.88C51.0102 47.26 49.9902 44.89 48.9202 42.97C48.8075 42.7675 48.6506 42.593 48.461 42.4594C48.2714 42.3259 48.054 42.2366 47.8247 42.1983C47.5954 42.1599 47.36 42.1734 47.136 42.2377C46.912 42.302 46.705 42.4156 46.5302 42.57L41.2602 47.27C39.9335 48.45 38.5702 48.4933 37.1702 47.4C36.9968 47.26 36.8369 47.1033 36.6902 46.93C35.8102 45.9033 35.7869 44.86 36.6202 43.8C37.8402 42.2533 39.3602 40.78 41.1802 39.38C62.4902 22.98 90.5302 24.29 109.85 43.26C110.379 43.7789 110.692 44.4781 110.727 45.2178C110.762 45.9575 110.517 46.6833 110.04 47.25C109.947 47.3567 109.84 47.4533 109.72 47.54C108.407 48.4467 107.14 48.3833 105.92 47.35L99.8502 42.2C99.7315 42.1009 99.5929 42.0285 99.4438 41.9876C99.2947 41.9467 99.1385 41.9383 98.9859 41.9629C98.8333 41.9876 98.6877 42.0447 98.559 42.1305C98.4304 42.2162 98.3217 42.3286 98.2402 42.46L95.5402 46.78C95.3828 47.0353 95.1539 47.2387 94.8819 47.3649C94.6098 47.4911 94.3067 47.5346 94.0102 47.49C92.5835 47.2767 91.5302 46.7267 90.8502 45.84C90.5835 45.4867 90.5169 45.1 90.6502 44.68C91.2302 42.8267 92.1202 41.1267 93.3202 39.58C93.6868 39.1133 93.6035 38.75 93.0702 38.49C88.2768 36.1367 82.9902 34.7 77.2102 34.18C76.6302 34.1333 76.3235 34.4 76.2902 34.98Z" fill="#075885"/>
<path d="M205.37 87.97C205.19 88.6033 205.1 89.26 205.1 89.94C205.113 98.2134 205.123 106.753 205.13 115.56C205.13 116.907 204.8 118.14 204.14 119.26C202.24 122.45 197.3 122.2 195.46 119.24C194.633 117.913 194.227 116.25 194.24 114.25C194.34 92.5833 194.39 71.6 194.39 51.3C194.4 44.83 194.21 41.25 201.65 41.24C216.23 41.22 231.207 41.2333 246.58 41.28C249.647 41.2933 251.25 42.87 251.39 46.01C251.397 46.0767 251.397 46.1433 251.39 46.21C251.363 49.3567 249.81 50.9367 246.73 50.95C233.697 51.0034 221.117 51.0067 208.99 50.96C206.95 50.9533 205.693 51.7633 205.22 53.39C205.153 53.61 205.117 54.9667 205.11 57.46C205.09 63.16 205.1 68.3133 205.14 72.92C205.153 74.9667 206.187 75.99 208.24 75.99C216.66 75.99 224.857 75.9967 232.83 76.01C233.923 76.01 235 76.13 236.06 76.37C242.03 77.71 240.79 85.96 234.72 85.97C225.993 85.9833 217.057 86.01 207.91 86.05C207.335 86.0532 206.777 86.2421 206.319 86.5882C205.861 86.9344 205.528 87.4192 205.37 87.97Z" fill="#075985"/>
<path d="M446.61 73.39C446.59 64.7634 446.56 56.1534 446.52 47.56C446.49 39.37 457.17 38.79 457.14 47.33C457.053 71.93 457.05 95.0934 457.13 116.82C457.14 120.11 455.05 122.01 451.94 122.02C444 122.053 436.22 122.033 428.6 121.96C414.01 121.83 401.44 110.82 400.56 96.12C399.96 86.2067 402.907 78.12 409.4 71.86C419.85 61.78 436.37 62.89 445.91 73.65C446.377 74.1767 446.61 74.09 446.61 73.39ZM428.729 112.73C433.575 112.755 438.232 110.75 441.677 107.156C445.122 103.562 447.073 98.6737 447.1 93.5657C447.126 88.4577 445.227 83.5489 441.82 79.919C438.413 76.2892 433.776 74.2357 428.931 74.2103C424.085 74.185 419.428 76.1898 415.983 79.7837C412.538 83.3777 410.587 88.2664 410.56 93.3743C410.534 98.4823 412.433 103.391 415.84 107.021C419.247 110.651 423.884 112.704 428.729 112.73Z" fill="#075985"/>
<path d="M487.89 109.44C488.13 110.313 488.703 110.753 489.61 110.76C500.71 110.793 511.723 110.777 522.65 110.71C526.51 110.68 530.38 112.18 529.93 116.84C529.58 120.34 526.84 121.49 523.71 121.51C509.163 121.563 495.11 121.53 481.55 121.41C477.27 121.37 476.79 117.51 476.78 114.22C476.727 90.62 476.71 68.43 476.73 47.65C476.73 39.1 487.35 39.03 487.39 47.35C487.483 68.1033 487.51 87.9933 487.47 107.02C487.46 107.67 487.72 108.81 487.89 109.44Z" fill="#0284C7"/>
<path d="M622.92 73.45C632.46 62.86 649.46 61.66 659.73 72.36C669.54 82.57 671.59 99.49 662.39 110.89C655.23 119.76 647.17 122.31 636.11 122.09C630.003 121.963 623.76 121.94 617.38 122.02C613.486 122.067 611.537 120.24 611.53 116.54C611.51 94.3866 611.487 72.38 611.46 50.52C611.46 46.5 611.08 41.43 616.78 41.35C621.4 41.29 621.96 44.91 621.98 48.55C622.033 57.2566 622.033 65.4333 621.98 73.08C621.973 74.0266 622.286 74.15 622.92 73.45ZM639.985 112.749C644.825 112.716 649.452 110.651 652.849 107.01C656.247 103.368 658.135 98.4485 658.099 93.3326C658.082 90.7994 657.592 88.2944 656.659 85.9605C655.725 83.6266 654.366 81.5095 652.659 79.7301C650.952 77.9508 648.93 76.5439 646.709 75.59C644.488 74.6361 642.112 74.1537 639.715 74.1705C634.875 74.2043 630.247 76.269 626.85 79.9103C623.453 83.5517 621.565 88.4715 621.6 93.5874C621.618 96.1205 622.107 98.6256 623.041 100.959C623.974 103.293 625.334 105.41 627.041 107.19C628.748 108.969 630.77 110.376 632.99 111.33C635.211 112.284 637.588 112.766 639.985 112.749Z" fill="#0284C7"/>
<path d="M66.8201 65.1C69.2778 65.1 71.2701 63.1077 71.2701 60.65C71.2701 58.1923 69.2778 56.2 66.8201 56.2C64.3625 56.2 62.3701 58.1923 62.3701 60.65C62.3701 63.1077 64.3625 65.1 66.8201 65.1Z" fill="#075885"/>
<path d="M79.2698 77.61C79.2698 75.66 79.5498 73.41 78.4898 71.6C77.1031 69.24 77.5265 67.2134 79.7598 65.52C83.5198 62.67 88.3998 67.49 85.9098 71.61C84.7798 73.48 84.9198 75.83 85.2798 77.89C85.3598 78.3434 85.6298 78.5667 86.0898 78.56C88.4098 78.5267 90.5431 77.99 92.4898 76.95C92.8498 76.7567 93.2265 76.7 93.6198 76.78C100.59 78.16 97.9998 87.94 91.4698 85.13C89.6765 84.3634 87.8131 84.0334 85.8798 84.14C85.7376 84.1487 85.6024 84.2045 85.4955 84.2987C85.3886 84.3929 85.3163 84.52 85.2898 84.66C84.8631 86.96 85.0798 89.1067 85.9398 91.1C87.0598 93.68 86.6898 96.53 83.6298 97.46C79.3998 98.74 76.2798 94.54 78.3698 90.86C79.3031 89.2134 79.5665 87.13 79.1598 84.61C79.0998 84.27 78.8965 84.0967 78.5498 84.09C76.3298 84.07 74.2365 84.49 72.2698 85.35C67.8698 87.28 64.8798 81.74 67.3898 78.53C68.7765 76.7567 70.5265 76.36 72.6398 77.34C74.4798 78.1867 76.4865 78.5034 78.6598 78.29C79.0665 78.2434 79.2698 78.0167 79.2698 77.61Z" fill="#075885"/>
<path d="M318.36 93.48C318.36 101.086 315.338 108.381 309.96 113.76C304.581 119.138 297.286 122.16 289.68 122.16C282.074 122.16 274.779 119.138 269.4 113.76C264.022 108.381 261 101.086 261 93.48C261 89.7137 261.742 85.9842 263.183 82.5046C264.624 79.025 266.737 75.8633 269.4 73.2002C274.779 67.8216 282.074 64.8 289.68 64.8C293.446 64.8 297.176 65.5418 300.655 66.9831C304.135 68.4244 307.297 70.537 309.96 73.2002C312.623 75.8633 314.736 79.025 316.177 82.5046C317.618 85.9842 318.36 89.7137 318.36 93.48ZM289.811 112.8C294.667 112.774 299.314 110.711 302.729 107.064C306.143 103.418 308.047 98.4859 308.02 93.3541C307.993 88.2222 306.038 83.3107 302.585 79.6999C299.133 76.0891 294.465 74.0749 289.609 74.1003C284.753 74.1257 280.106 76.1887 276.691 79.8355C273.277 83.4823 271.373 88.414 271.4 93.5459C271.427 98.6777 273.382 103.589 276.835 107.2C280.287 110.811 284.955 112.825 289.811 112.8Z" fill="#075985"/>
<path d="M387.95 93.49C387.95 101.099 384.927 108.396 379.547 113.777C374.166 119.157 366.869 122.18 359.26 122.18C351.651 122.18 344.353 119.157 338.973 113.777C333.593 108.396 330.57 101.099 330.57 93.49C330.57 85.8809 333.593 78.5835 338.973 73.2031C344.353 67.8227 351.651 64.8 359.26 64.8C366.869 64.8 374.166 67.8227 379.547 73.2031C384.927 78.5835 387.95 85.8809 387.95 93.49ZM359.145 112.799C364.004 112.833 368.677 110.829 372.138 107.228C375.599 103.627 377.564 98.7244 377.599 93.5979C377.617 91.0595 377.161 88.5426 376.257 86.191C375.352 83.8394 374.018 81.6992 372.329 79.8924C370.641 78.0856 368.631 76.6477 366.415 75.6608C364.199 74.6739 361.82 74.1573 359.415 74.1405C354.556 74.1066 349.882 76.1105 346.421 79.7115C342.96 83.3125 340.996 88.2156 340.96 93.3421C340.942 95.8805 341.399 98.3973 342.303 100.749C343.207 103.101 344.542 105.241 346.23 107.048C347.919 108.854 349.929 110.292 352.145 111.279C354.36 112.266 356.739 112.783 359.145 112.799Z" fill="#075985"/>
<path d="M546.74 113.85C531.08 96.4 540.35 67.14 564.98 65.06C578.12 63.95 589.45 71.27 594.07 83.68C595.303 87 595.897 91.3333 595.85 96.68C595.79 103.707 595.74 110.333 595.7 116.56C595.68 120.227 593.86 122.043 590.24 122.01C582.68 121.943 575.27 121.967 568.01 122.08C563.217 122.153 559.533 121.7 556.96 120.72C552.86 119.16 549.453 116.87 546.74 113.85ZM567.491 112.8C572.339 112.774 576.978 110.714 580.387 107.073C583.796 103.432 585.696 98.5082 585.67 93.3843C585.643 88.2604 583.691 83.3564 580.244 79.7512C576.797 76.146 572.137 74.1349 567.289 74.1603C562.441 74.1857 557.802 76.2455 554.393 79.8866C550.984 83.5277 549.083 88.4518 549.11 93.5757C549.137 98.6996 551.089 103.604 554.536 107.209C557.983 110.814 562.643 112.825 567.491 112.8Z" fill="#0284C7"/>
<path d="M56.45 78.45C58.9297 78.45 60.94 76.4397 60.94 73.96C60.94 71.4802 58.9297 69.47 56.45 69.47C53.9702 69.47 51.96 71.4802 51.96 73.96C51.96 76.4397 53.9702 78.45 56.45 78.45Z" fill="#075885"/>
<path d="M61.26 95.32C63.7398 95.32 65.75 93.3097 65.75 90.83C65.75 88.3502 63.7398 86.34 61.26 86.34C58.7803 86.34 56.77 88.3502 56.77 90.83C56.77 93.3097 58.7803 95.32 61.26 95.32Z" fill="#075885"/>
<path d="M72.586 105.237C75.0359 104.854 76.7192 102.61 76.3458 100.225C75.9724 97.8409 73.6837 96.2189 71.2338 96.6026C68.7839 96.9862 67.1005 99.2302 67.4739 101.615C67.8473 103.999 70.1361 105.621 72.586 105.237Z" fill="#075885"/>
</g>
<defs>
<clipPath id="clip0_602_1754">
<rect width="673" height="161" fill="white"/>
</clipPath>
</defs>
</svg>
