<?xml version="1.0" encoding="UTF-8" standalone="no"?>
<!DOCTYPE svg PUBLIC "-//W3C//DTD SVG 1.1//EN" "http://www.w3.org/Graphics/SVG/1.1/DTD/svg11.dtd">
<svg xmlns="http://www.w3.org/2000/svg" version="1.1" viewBox="0.00 0.00 290.00 84.00">
<g stroke-width="2.00" fill="none" stroke-linecap="butt">
<path stroke="#82adbf" vector-effect="non-scaling-stroke" d="
  M 15.66 42.65
  Q 16.05 42.48 16.47 42.47
  Q 24.41 42.31 34.01 42.37
  A 2.72 2.71 23.0 0 0 35.93 41.60
  Q 39.17 38.46 35.12 36.12
  A 2.29 2.19 59.0 0 0 33.99 35.81
  L 16.02 35.72
  A 1.10 1.10 0.0 0 1 14.92 34.68
  Q 14.48 27.48 14.93 21.12
  Q 15.04 19.58 16.59 19.57
  L 41.87 19.52
  Q 45.27 19.51 44.84 16.14
  L 44.79 15.80
  Q 44.46 13.16 41.80 13.17
  L 11.67 13.19
  Q 7.78 13.19 7.78 17.08
  L 7.83 61.62
  Q 7.83 64.89 11.05 65.46
  Q 11.54 65.54 12.00 65.42
  Q 14.73 64.73 14.74 61.91
  L 14.77 44.01
  Q 14.77 43.05 15.66 42.65"
/>
<path stroke="#82adbf" vector-effect="non-scaling-stroke" d="
  M 162.53 33.80
  C 158.16 29.68 153.10 27.82 147.04 28.90
  C 139.82 30.20 134.38 37.01 133.48 44.31
  C 132.39 53.11 136.37 61.00 144.73 64.44
  Q 148.52 65.99 155.10 65.81
  Q 160.72 65.65 166.96 65.78
  A 3.04 3.04 0.0 0 0 170.07 62.74
  L 170.09 16.77
  Q 170.09 13.34 166.67 13.21
  Q 166.25 13.20 165.85 13.29
  Q 163.25 13.88 163.25 16.54
  L 163.26 33.49
  Q 163.26 34.48 162.53 33.80"
/>
<path stroke="#81c2df" vector-effect="non-scaling-stroke" d="
  M 188.58 57.29
  Q 187.55 55.32 187.54 53.08
  Q 187.52 35.47 187.53 15.94
  Q 187.53 13.17 184.77 13.22
  L 183.87 13.24
  Q 180.86 13.29 180.85 16.29
  Q 180.76 33.96 180.81 52.13
  C 180.83 59.11 183.55 65.70 191.76 65.44
  C 194.65 65.35 196.90 62.43 194.79 59.94
  C 193.04 57.88 189.83 59.66 188.58 57.29"
/>
<path stroke="#81c2df" vector-effect="non-scaling-stroke" d="
  M 252.25 33.54
  L 252.27 16.80
  Q 252.27 13.99 249.56 13.26
  Q 249.14 13.14 248.70 13.17
  Q 245.33 13.35 245.33 16.73
  L 245.35 62.13
  Q 245.35 65.84 249.06 65.80
  Q 254.80 65.74 260.15 65.87
  C 269.49 66.11 276.81 63.46 280.76 54.75
  C 285.32 44.68 279.47 30.71 268.21 28.85
  Q 259.73 27.45 252.87 33.81
  Q 252.25 34.38 252.25 33.54"
/>
<path stroke="#82adbf" vector-effect="non-scaling-stroke" d="
  M 70.67 35.33
  Q 69.56 35.11 70.35 34.30
  Q 72.24 32.37 72.16 30.11
  A 1.49 1.47 -78.8 0 0 71.30 28.81
  C 69.31 27.88 66.72 30.20 65.46 31.50
  A 0.88 0.88 0.0 0 1 64.33 31.61
  L 63.57 31.10
  Q 62.69 30.50 62.73 31.56
  L 62.88 35.78
  Q 62.91 36.52 62.22 36.24
  Q 55.09 33.28 50.19 38.85
  A 0.85 0.84 33.7 0 0 50.46 40.16
  C 51.98 40.90 53.45 42.49 53.50 44.27
  C 53.55 45.60 53.50 46.53 54.25 47.72
  Q 55.17 49.18 55.48 50.84
  Q 55.58 51.41 55.96 51.83
  Q 60.51 56.97 55.23 61.53
  A 0.81 0.81 0.0 0 0 55.31 62.81
  Q 60.34 66.19 65.95 65.13
  C 74.92 63.43 77.70 55.70 78.44 47.50
  Q 79.39 37.10 70.67 35.33"
/>
<path stroke="#82adbf" vector-effect="non-scaling-stroke" d="
  M 125.24 47.20
  A 18.66 18.66 0.0 0 0 106.58 28.54
  A 18.66 18.66 0.0 0 0 87.92 47.20
  A 18.66 18.66 0.0 0 0 106.58 65.86
  A 18.66 18.66 0.0 0 0 125.24 47.20"
/>
<path stroke="#81c2df" vector-effect="non-scaling-stroke" d="
  M 224.21 30.14
  Q 218.14 27.08 210.19 29.81
  C 195.20 34.95 194.52 57.18 208.31 64.17
  Q 211.96 66.02 218.20 65.91
  Q 225.55 65.78 232.56 65.72
  A 2.69 2.69 0.0 0 0 235.23 63.04
  Q 235.24 55.10 235.27 47.02
  Q 235.29 35.73 224.21 30.14"
/>
<path stroke="#82adbf" vector-effect="non-scaling-stroke" d="
  M 151.6443 59.7198
  A 12.54 11.82 90.3 0 0 163.5298 47.2419
  A 12.54 11.82 90.3 0 0 151.7757 34.6402
  A 12.54 11.82 90.3 0 0 139.8902 47.1181
  A 12.54 11.82 90.3 0 0 151.6443 59.7198"
/>
<path stroke="#81c2df" vector-effect="non-scaling-stroke" d="
  M 263.7863 59.7099
  A 12.52 11.78 90.2 0 0 275.6099 47.2311
  A 12.52 11.78 90.2 0 0 263.8737 34.6701
  A 12.52 11.78 90.2 0 0 252.0501 47.1489
  A 12.52 11.78 90.2 0 0 263.7863 59.7099"
/>
<path stroke="#82adbf" vector-effect="non-scaling-stroke" d="
  M 65.2173 35.6978
  A 3.72 1.02 134.4 0 0 68.5488 33.7537
  A 3.72 1.02 134.4 0 0 70.4227 30.3822
  A 3.72 1.02 134.4 0 0 67.0912 32.3263
  A 3.72 1.02 134.4 0 0 65.2173 35.6978"
/>
<path stroke="#82adbf" vector-effect="non-scaling-stroke" d="
  M 63.19 38.95
  Q 62.58 38.67 62.03 38.30
  C 59.28 36.41 55.66 36.70 52.93 38.47
  A 0.76 0.76 0.0 0 0 52.87 39.71
  Q 55.07 41.43 55.32 44.28
  C 55.47 46.01 56.33 47.42 56.87 49.03
  Q 57.45 50.72 58.44 52.22
  Q 61.53 56.91 57.69 61.55
  Q 57.21 62.14 57.91 62.45
  C 65.04 65.61 72.69 62.66 75.05 55.13
  C 76.53 50.44 78.21 43.32 74.83 39.44
  C 72.27 36.51 67.37 36.12 64.29 38.78
  Q 63.79 39.22 63.19 38.95"
/>
<path stroke="#82adbf" vector-effect="non-scaling-stroke" d="
  M 106.3604 59.7581
  A 12.58 11.86 91.0 0 0 118.4382 47.3870
  A 12.58 11.86 91.0 0 0 106.7996 34.6019
  A 12.58 11.86 91.0 0 0 94.7218 46.9730
  A 12.58 11.86 91.0 0 0 106.3604 59.7581"
/>
<path stroke="#81c2df" vector-effect="non-scaling-stroke" d="
  M 216.7863 59.7399
  A 12.53 11.82 90.2 0 0 228.6499 47.2513
  A 12.53 11.82 90.2 0 0 216.8737 34.6801
  A 12.53 11.82 90.2 0 0 205.0101 47.1687
  A 12.53 11.82 90.2 0 0 216.7863 59.7399"
/>
<path stroke="#82adbf" vector-effect="non-scaling-stroke" d="
  M 73.51 49.99
  A 0.90 0.90 0.0 0 0 72.61 49.09
  A 0.90 0.90 0.0 0 0 71.71 49.99
  A 0.90 0.90 0.0 0 0 72.61 50.89
  A 0.90 0.90 0.0 0 0 73.51 49.99"
/>
<path stroke="#82adbf" vector-effect="non-scaling-stroke" d="
  M 70.9787 52.6061
  A 0.92 0.76 -9.0 0 0 69.9511 51.9994
  A 0.92 0.76 -9.0 0 0 69.1613 52.8939
  A 0.92 0.76 -9.0 0 0 70.1889 53.5006
  A 0.92 0.76 -9.0 0 0 70.9787 52.6061"
/>
<path stroke="#82adbf" vector-effect="non-scaling-stroke" d="
  M 74.1052 53.5147
  A 1.03 0.83 12.6 0 0 73.2811 52.4800
  A 1.03 0.83 12.6 0 0 72.0948 53.0653
  A 1.03 0.83 12.6 0 0 72.9189 54.1000
  A 1.03 0.83 12.6 0 0 74.1052 53.5147"
/>
<path stroke="#82adbf" vector-effect="non-scaling-stroke" d="
  M 69.78 56.46
  L 70.98 57.57
  A 0.71 0.71 0.0 0 0 72.06 57.43
  Q 72.31 57.02 72.15 56.57
  Q 71.90 55.85 71.15 56.01
  Q 69.69 56.32 68.76 55.21
  A 0.47 0.46 31.7 0 0 67.95 55.40
  Q 67.86 55.78 67.96 56.18
  Q 68.14 56.90 68.86 56.73
  Q 69.06 56.69 69.18 56.53
  A 0.41 0.40 -50.9 0 1 69.78 56.46"
/>
<path stroke="#82adbf" vector-effect="non-scaling-stroke" d="
  M 67.01 59.25
  Q 67.51 60.38 68.37 60.45
  Q 68.92 60.49 69.14 59.99
  Q 69.33 59.58 69.11 59.26
  Q 68.86 58.89 68.26 58.92
  Q 67.63 58.96 67.01 59.25"
/>
<path stroke="#82adbf" vector-effect="non-scaling-stroke" d="
  M 67.01 59.25
  Q 66.41 58.14 65.61 57.87
  Q 64.96 57.65 64.80 58.31
  Q 64.76 58.46 64.76 58.61
  Q 64.77 59.25 65.40 59.16
  Q 66.31 59.05 67.01 59.25"
/>
<path stroke="#82adbf" vector-effect="non-scaling-stroke" d="
  M 64.6362 60.8096
  A 0.94 0.79 -41.3 0 0 63.4086 60.8365
  A 0.94 0.79 -41.3 0 0 63.2238 62.0504
  A 0.94 0.79 -41.3 0 0 64.4514 62.0235
  A 0.94 0.79 -41.3 0 0 64.6362 60.8096"
/>
</g>
<path fill="#ffffff" d="
  M 0.00 0.00
  L 290.00 0.00
  L 290.00 84.00
  L 0.00 84.00
  L 0.00 0.00
  Z
  M 15.66 42.65
  Q 16.05 42.48 16.47 42.47
  Q 24.41 42.31 34.01 42.37
  A 2.72 2.71 23.0 0 0 35.93 41.60
  Q 39.17 38.46 35.12 36.12
  A 2.29 2.19 59.0 0 0 33.99 35.81
  L 16.02 35.72
  A 1.10 1.10 0.0 0 1 14.92 34.68
  Q 14.48 27.48 14.93 21.12
  Q 15.04 19.58 16.59 19.57
  L 41.87 19.52
  Q 45.27 19.51 44.84 16.14
  L 44.79 15.80
  Q 44.46 13.16 41.80 13.17
  L 11.67 13.19
  Q 7.78 13.19 7.78 17.08
  L 7.83 61.62
  Q 7.83 64.89 11.05 65.46
  Q 11.54 65.54 12.00 65.42
  Q 14.73 64.73 14.74 61.91
  L 14.77 44.01
  Q 14.77 43.05 15.66 42.65
  Z
  M 162.53 33.80
  C 158.16 29.68 153.10 27.82 147.04 28.90
  C 139.82 30.20 134.38 37.01 133.48 44.31
  C 132.39 53.11 136.37 61.00 144.73 64.44
  Q 148.52 65.99 155.10 65.81
  Q 160.72 65.65 166.96 65.78
  A 3.04 3.04 0.0 0 0 170.07 62.74
  L 170.09 16.77
  Q 170.09 13.34 166.67 13.21
  Q 166.25 13.20 165.85 13.29
  Q 163.25 13.88 163.25 16.54
  L 163.26 33.49
  Q 163.26 34.48 162.53 33.80
  Z
  M 188.58 57.29
  Q 187.55 55.32 187.54 53.08
  Q 187.52 35.47 187.53 15.94
  Q 187.53 13.17 184.77 13.22
  L 183.87 13.24
  Q 180.86 13.29 180.85 16.29
  Q 180.76 33.96 180.81 52.13
  C 180.83 59.11 183.55 65.70 191.76 65.44
  C 194.65 65.35 196.90 62.43 194.79 59.94
  C 193.04 57.88 189.83 59.66 188.58 57.29
  Z
  M 252.25 33.54
  L 252.27 16.80
  Q 252.27 13.99 249.56 13.26
  Q 249.14 13.14 248.70 13.17
  Q 245.33 13.35 245.33 16.73
  L 245.35 62.13
  Q 245.35 65.84 249.06 65.80
  Q 254.80 65.74 260.15 65.87
  C 269.49 66.11 276.81 63.46 280.76 54.75
  C 285.32 44.68 279.47 30.71 268.21 28.85
  Q 259.73 27.45 252.87 33.81
  Q 252.25 34.38 252.25 33.54
  Z
  M 70.67 35.33
  Q 69.56 35.11 70.35 34.30
  Q 72.24 32.37 72.16 30.11
  A 1.49 1.47 -78.8 0 0 71.30 28.81
  C 69.31 27.88 66.72 30.20 65.46 31.50
  A 0.88 0.88 0.0 0 1 64.33 31.61
  L 63.57 31.10
  Q 62.69 30.50 62.73 31.56
  L 62.88 35.78
  Q 62.91 36.52 62.22 36.24
  Q 55.09 33.28 50.19 38.85
  A 0.85 0.84 33.7 0 0 50.46 40.16
  C 51.98 40.90 53.45 42.49 53.50 44.27
  C 53.55 45.60 53.50 46.53 54.25 47.72
  Q 55.17 49.18 55.48 50.84
  Q 55.58 51.41 55.96 51.83
  Q 60.51 56.97 55.23 61.53
  A 0.81 0.81 0.0 0 0 55.31 62.81
  Q 60.34 66.19 65.95 65.13
  C 74.92 63.43 77.70 55.70 78.44 47.50
  Q 79.39 37.10 70.67 35.33
  Z
  M 125.24 47.20
  A 18.66 18.66 0.0 0 0 106.58 28.54
  A 18.66 18.66 0.0 0 0 87.92 47.20
  A 18.66 18.66 0.0 0 0 106.58 65.86
  A 18.66 18.66 0.0 0 0 125.24 47.20
  Z
  M 224.21 30.14
  Q 218.14 27.08 210.19 29.81
  C 195.20 34.95 194.52 57.18 208.31 64.17
  Q 211.96 66.02 218.20 65.91
  Q 225.55 65.78 232.56 65.72
  A 2.69 2.69 0.0 0 0 235.23 63.04
  Q 235.24 55.10 235.27 47.02
  Q 235.29 35.73 224.21 30.14
  Z"
/>
<path fill="#055a7e" d="
  M 15.66 42.65
  Q 14.77 43.05 14.77 44.01
  L 14.74 61.91
  Q 14.73 64.73 12.00 65.42
  Q 11.54 65.54 11.05 65.46
  Q 7.83 64.89 7.83 61.62
  L 7.78 17.08
  Q 7.78 13.19 11.67 13.19
  L 41.80 13.17
  Q 44.46 13.16 44.79 15.80
  L 44.84 16.14
  Q 45.27 19.51 41.87 19.52
  L 16.59 19.57
  Q 15.04 19.58 14.93 21.12
  Q 14.48 27.48 14.92 34.68
  A 1.10 1.10 0.0 0 0 16.02 35.72
  L 33.99 35.81
  A 2.29 2.19 59.0 0 1 35.12 36.12
  Q 39.17 38.46 35.93 41.60
  A 2.72 2.71 23.0 0 1 34.01 42.37
  Q 24.41 42.31 16.47 42.47
  Q 16.05 42.48 15.66 42.65
  Z"
/>
<path fill="#055a7e" d="
  M 163.26 33.49
  L 163.25 16.54
  Q 163.25 13.88 165.85 13.29
  Q 166.25 13.20 166.67 13.21
  Q 170.09 13.34 170.09 16.77
  L 170.07 62.74
  A 3.04 3.04 0.0 0 1 166.96 65.78
  Q 160.72 65.65 155.10 65.81
  Q 148.52 65.99 144.73 64.44
  C 136.37 61.00 132.39 53.11 133.48 44.31
  C 134.38 37.01 139.82 30.20 147.04 28.90
  C 153.10 27.82 158.16 29.68 162.53 33.80
  Q 163.26 34.48 163.26 33.49
  Z
  M 151.6443 59.7198
  A 12.54 11.82 90.3 0 0 163.5298 47.2419
  A 12.54 11.82 90.3 0 0 151.7757 34.6402
  A 12.54 11.82 90.3 0 0 139.8902 47.1181
  A 12.54 11.82 90.3 0 0 151.6443 59.7198
  Z"
/>
<path fill="#0284bf" d="
  M 188.58 57.29
  C 189.83 59.66 193.04 57.88 194.79 59.94
  C 196.90 62.43 194.65 65.35 191.76 65.44
  C 183.55 65.70 180.83 59.11 180.81 52.13
  Q 180.76 33.96 180.85 16.29
  Q 180.86 13.29 183.87 13.24
  L 184.77 13.22
  Q 187.53 13.17 187.53 15.94
  Q 187.52 35.47 187.54 53.08
  Q 187.55 55.32 188.58 57.29
  Z"
/>
<path fill="#0284bf" d="
  M 252.25 33.54
  Q 252.25 34.38 252.87 33.81
  Q 259.73 27.45 268.21 28.85
  C 279.47 30.71 285.32 44.68 280.76 54.75
  C 276.81 63.46 269.49 66.11 260.15 65.87
  Q 254.80 65.74 249.06 65.80
  Q 245.35 65.84 245.35 62.13
  L 245.33 16.73
  Q 245.33 13.35 248.70 13.17
  Q 249.14 13.14 249.56 13.26
  Q 252.27 13.99 252.27 16.80
  L 252.25 33.54
  Z
  M 263.7863 59.7099
  A 12.52 11.78 90.2 0 0 275.6099 47.2311
  A 12.52 11.78 90.2 0 0 263.8737 34.6701
  A 12.52 11.78 90.2 0 0 252.0501 47.1489
  A 12.52 11.78 90.2 0 0 263.7863 59.7099
  Z"
/>
<path fill="#055a7e" d="
  M 70.67 35.33
  Q 79.39 37.10 78.44 47.50
  C 77.70 55.70 74.92 63.43 65.95 65.13
  Q 60.34 66.19 55.31 62.81
  A 0.81 0.81 0.0 0 1 55.23 61.53
  Q 60.51 56.97 55.96 51.83
  Q 55.58 51.41 55.48 50.84
  Q 55.17 49.18 54.25 47.72
  C 53.50 46.53 53.55 45.60 53.50 44.27
  C 53.45 42.49 51.98 40.90 50.46 40.16
  A 0.85 0.84 33.7 0 1 50.19 38.85
  Q 55.09 33.28 62.22 36.24
  Q 62.91 36.52 62.88 35.78
  L 62.73 31.56
  Q 62.69 30.50 63.57 31.10
  L 64.33 31.61
  A 0.88 0.88 0.0 0 0 65.46 31.50
  C 66.72 30.20 69.31 27.88 71.30 28.81
  A 1.49 1.47 -78.8 0 1 72.16 30.11
  Q 72.24 32.37 70.35 34.30
  Q 69.56 35.11 70.67 35.33
  Z
  M 65.2173 35.6978
  A 3.72 1.02 134.4 0 0 68.5488 33.7537
  A 3.72 1.02 134.4 0 0 70.4227 30.3822
  A 3.72 1.02 134.4 0 0 67.0912 32.3263
  A 3.72 1.02 134.4 0 0 65.2173 35.6978
  Z
  M 63.19 38.95
  Q 62.58 38.67 62.03 38.30
  C 59.28 36.41 55.66 36.70 52.93 38.47
  A 0.76 0.76 0.0 0 0 52.87 39.71
  Q 55.07 41.43 55.32 44.28
  C 55.47 46.01 56.33 47.42 56.87 49.03
  Q 57.45 50.72 58.44 52.22
  Q 61.53 56.91 57.69 61.55
  Q 57.21 62.14 57.91 62.45
  C 65.04 65.61 72.69 62.66 75.05 55.13
  C 76.53 50.44 78.21 43.32 74.83 39.44
  C 72.27 36.51 67.37 36.12 64.29 38.78
  Q 63.79 39.22 63.19 38.95
  Z"
/>
<path fill="#055a7e" d="
  M 125.24 47.20
  A 18.66 18.66 0.0 0 1 106.58 65.86
  A 18.66 18.66 0.0 0 1 87.92 47.20
  A 18.66 18.66 0.0 0 1 106.58 28.54
  A 18.66 18.66 0.0 0 1 125.24 47.20
  Z
  M 106.3604 59.7581
  A 12.58 11.86 91.0 0 0 118.4382 47.3870
  A 12.58 11.86 91.0 0 0 106.7996 34.6019
  A 12.58 11.86 91.0 0 0 94.7218 46.9730
  A 12.58 11.86 91.0 0 0 106.3604 59.7581
  Z"
/>
<path fill="#0284bf" d="
  M 224.21 30.14
  Q 235.29 35.73 235.27 47.02
  Q 235.24 55.10 235.23 63.04
  A 2.69 2.69 0.0 0 1 232.56 65.72
  Q 225.55 65.78 218.20 65.91
  Q 211.96 66.02 208.31 64.17
  C 194.52 57.18 195.20 34.95 210.19 29.81
  Q 218.14 27.08 224.21 30.14
  Z
  M 216.7863 59.7399
  A 12.53 11.82 90.2 0 0 228.6499 47.2513
  A 12.53 11.82 90.2 0 0 216.8737 34.6801
  A 12.53 11.82 90.2 0 0 205.0101 47.1687
  A 12.53 11.82 90.2 0 0 216.7863 59.7399
  Z"
/>
<ellipse fill="#ffffff" cx="0.00" cy="0.00" transform="translate(67.82,33.04) rotate(134.4)" rx="3.72" ry="1.02"/>
<ellipse fill="#ffffff" cx="0.00" cy="0.00" transform="translate(106.58,47.18) rotate(91.0)" rx="12.58" ry="11.86"/>
<ellipse fill="#ffffff" cx="0.00" cy="0.00" transform="translate(151.71,47.18) rotate(90.3)" rx="12.54" ry="11.82"/>
<ellipse fill="#ffffff" cx="0.00" cy="0.00" transform="translate(216.83,47.21) rotate(90.2)" rx="12.53" ry="11.82"/>
<ellipse fill="#ffffff" cx="0.00" cy="0.00" transform="translate(263.83,47.19) rotate(90.2)" rx="12.52" ry="11.78"/>
<path fill="#ffffff" d="
  M 64.29 38.78
  C 67.37 36.12 72.27 36.51 74.83 39.44
  C 78.21 43.32 76.53 50.44 75.05 55.13
  C 72.69 62.66 65.04 65.61 57.91 62.45
  Q 57.21 62.14 57.69 61.55
  Q 61.53 56.91 58.44 52.22
  Q 57.45 50.72 56.87 49.03
  C 56.33 47.42 55.47 46.01 55.32 44.28
  Q 55.07 41.43 52.87 39.71
  A 0.76 0.76 0.0 0 1 52.93 38.47
  C 55.66 36.70 59.28 36.41 62.03 38.30
  Q 62.58 38.67 63.19 38.95
  Q 63.79 39.22 64.29 38.78
  Z
  M 73.51 49.99
  A 0.90 0.90 0.0 0 0 72.61 49.09
  A 0.90 0.90 0.0 0 0 71.71 49.99
  A 0.90 0.90 0.0 0 0 72.61 50.89
  A 0.90 0.90 0.0 0 0 73.51 49.99
  Z
  M 70.9787 52.6061
  A 0.92 0.76 -9.0 0 0 69.9511 51.9994
  A 0.92 0.76 -9.0 0 0 69.1613 52.8939
  A 0.92 0.76 -9.0 0 0 70.1889 53.5006
  A 0.92 0.76 -9.0 0 0 70.9787 52.6061
  Z
  M 74.1052 53.5147
  A 1.03 0.83 12.6 0 0 73.2811 52.4800
  A 1.03 0.83 12.6 0 0 72.0948 53.0653
  A 1.03 0.83 12.6 0 0 72.9189 54.1000
  A 1.03 0.83 12.6 0 0 74.1052 53.5147
  Z
  M 69.78 56.46
  L 70.98 57.57
  A 0.71 0.71 0.0 0 0 72.06 57.43
  Q 72.31 57.02 72.15 56.57
  Q 71.90 55.85 71.15 56.01
  Q 69.69 56.32 68.76 55.21
  A 0.47 0.46 31.7 0 0 67.95 55.40
  Q 67.86 55.78 67.96 56.18
  Q 68.14 56.90 68.86 56.73
  Q 69.06 56.69 69.18 56.53
  A 0.41 0.40 -50.9 0 1 69.78 56.46
  Z
  M 67.01 59.25
  Q 67.51 60.38 68.37 60.45
  Q 68.92 60.49 69.14 59.99
  Q 69.33 59.58 69.11 59.26
  Q 68.86 58.89 68.26 58.92
  Q 67.63 58.96 67.01 59.25
  Q 66.41 58.14 65.61 57.87
  Q 64.96 57.65 64.80 58.31
  Q 64.76 58.46 64.76 58.61
  Q 64.77 59.25 65.40 59.16
  Q 66.31 59.05 67.01 59.25
  Z
  M 64.6362 60.8096
  A 0.94 0.79 -41.3 0 0 63.4086 60.8365
  A 0.94 0.79 -41.3 0 0 63.2238 62.0504
  A 0.94 0.79 -41.3 0 0 64.4514 62.0235
  A 0.94 0.79 -41.3 0 0 64.6362 60.8096
  Z"
/>
<circle fill="#055a7e" cx="72.61" cy="49.99" r="0.90"/>
<ellipse fill="#055a7e" cx="0.00" cy="0.00" transform="translate(70.07,52.75) rotate(-9.0)" rx="0.92" ry="0.76"/>
<ellipse fill="#055a7e" cx="0.00" cy="0.00" transform="translate(73.10,53.29) rotate(12.6)" rx="1.03" ry="0.83"/>
<path fill="#055a7e" d="
  M 69.18 56.53
  Q 69.06 56.69 68.86 56.73
  Q 68.14 56.90 67.96 56.18
  Q 67.86 55.78 67.95 55.40
  A 0.47 0.46 31.7 0 1 68.76 55.21
  Q 69.69 56.32 71.15 56.01
  Q 71.90 55.85 72.15 56.57
  Q 72.31 57.02 72.06 57.43
  A 0.71 0.71 0.0 0 1 70.98 57.57
  L 69.78 56.46
  A 0.41 0.40 -50.9 0 0 69.18 56.53
  Z"
/>
<path fill="#055a7e" d="
  M 67.01 59.25
  Q 66.31 59.05 65.40 59.16
  Q 64.77 59.25 64.76 58.61
  Q 64.76 58.46 64.80 58.31
  Q 64.96 57.65 65.61 57.87
  Q 66.41 58.14 67.01 59.25
  Z"
/>
<path fill="#055a7e" d="
  M 67.01 59.25
  Q 67.63 58.96 68.26 58.92
  Q 68.86 58.89 69.11 59.26
  Q 69.33 59.58 69.14 59.99
  Q 68.92 60.49 68.37 60.45
  Q 67.51 60.38 67.01 59.25
  Z"
/>
<ellipse fill="#055a7e" cx="0.00" cy="0.00" transform="translate(63.93,61.43) rotate(-41.3)" rx="0.94" ry="0.79"/>
</svg>
